<?xml version="1.0" encoding="UTF-8" standalone="no"?>
<!DOCTYPE svg PUBLIC "-//W3C//DTD SVG 1.1//EN" "http://www.w3.org/Graphics/SVG/1.1/DTD/svg11.dtd">
<svg width="100%" height="100%" viewBox="0 0 26 33" version="1.1" xmlns="http://www.w3.org/2000/svg" xmlns:xlink="http://www.w3.org/1999/xlink" xml:space="preserve" xmlns:serif="http://www.serif.com/" style="fill-rule:evenodd;clip-rule:evenodd;stroke-linejoin:round;stroke-miterlimit:2;">
    <g id="Artboard1" transform="matrix(1,0,0,1,-16.4925,0.453566)">
        <rect x="16.493" y="-0.454" width="25.547" height="32.769" style="fill:none;"/>
        <g transform="matrix(1.34458,0,0,1.34458,20.0033,-9.27215)">
            <path d="M7.005,7.946C9.405,7.946 11.163,8.416 12.302,9.356C13.416,10.297 13.985,11.486 13.985,12.896L13.985,25.025C13.985,25.52 13.886,26.065 13.713,26.634C13.54,27.228 13.193,27.772 12.673,28.243C12.153,28.738 11.436,29.133 10.545,29.48C9.653,29.802 8.465,29.975 7.03,29.975C5.57,29.975 4.406,29.802 3.515,29.48C2.624,29.158 1.905,28.738 1.386,28.243C0.866,27.748 0.52,27.203 0.346,26.633C0.173,26.04 0.074,25.495 0.074,25.025L0.074,23.095C0.074,22.055 0.347,21.114 0.866,20.272C1.411,19.431 2.153,18.812 3.144,18.465C3.639,18.292 4.184,18.119 4.827,17.896C5.446,17.673 6.064,17.476 6.658,17.252C7.252,17.054 7.748,16.856 8.193,16.708C8.639,16.535 8.911,16.46 9.01,16.411C9.109,16.361 9.257,16.287 9.43,16.188C9.604,16.089 9.777,15.941 9.95,15.768C10.124,15.569 10.248,15.347 10.371,15.124C10.495,14.876 10.545,14.579 10.545,14.257L10.545,13.49C10.545,13.218 10.495,12.946 10.371,12.649C10.272,12.351 10.074,12.104 9.802,11.856C9.53,11.609 9.158,11.411 8.712,11.262C8.267,11.114 7.698,11.04 7.005,11.04C5.644,11.04 4.728,11.312 4.233,11.881C3.806,12.381 3.554,13.007 3.515,13.663C3.515,13.812 3.391,13.911 3.243,13.911L0.273,13.911C0.124,13.91 0.002,13.788 -0,13.639L0,12.921C0,12.228 0.124,11.584 0.396,10.991C0.644,10.396 1.064,9.851 1.658,9.406C2.228,8.96 2.946,8.589 3.837,8.342C4.703,8.094 5.767,7.946 7.005,7.946ZM10.52,18.812C10.474,19.069 10.321,19.294 10.099,19.431C9.876,19.579 9.679,19.653 9.48,19.728C9.06,19.876 8.614,20.025 8.144,20.198C7.674,20.371 7.228,20.545 6.807,20.668C6.312,20.842 5.842,20.99 5.421,21.163C5.084,21.31 4.768,21.502 4.481,21.733C4.233,21.955 4.01,22.228 3.811,22.574C3.614,22.921 3.515,23.342 3.515,23.861C3.515,24.901 3.762,25.668 4.257,26.188C4.752,26.683 5.668,26.955 7.005,26.955C8.366,26.955 9.307,26.683 9.802,26.163C10.297,25.619 10.545,24.876 10.545,23.886L10.545,18.812L10.52,18.812Z" style="fill:rgb(10,56,113);"/>
        </g>
    </g>
</svg>
